<svg xmlns="http://www.w3.org/2000/svg" viewBox="0 0 720 420" fill="none">
  <defs>
    <linearGradient id="g1" x1="0" y1="0" x2="0" y2="1">
      <stop offset="0" stop-color="#005A9C" stop-opacity="0.16"/>
      <stop offset="1" stop-color="#005A9C" stop-opacity="0.04"/>
    </linearGradient>
  </defs>

  <rect x="26" y="30" width="668" height="360" rx="28" fill="url(#g1)"/>
  <rect x="56" y="72" width="608" height="276" rx="22" stroke="#005A9C" stroke-opacity="0.22" stroke-width="3"/>

  <g stroke="#005A9C" stroke-width="4" stroke-linecap="round" stroke-linejoin="round">
    <rect x="86" y="120" width="170" height="180" rx="18" fill="none" stroke-opacity="0.48"/>
    <rect x="275" y="120" width="170" height="180" rx="18" fill="none" stroke-opacity="0.48"/>
    <rect x="464" y="120" width="170" height="180" rx="18" fill="none" stroke-opacity="0.48"/>

    <path d="M256 210h18" stroke-opacity="0.75"/>
    <path d="M447 210h18" stroke-opacity="0.75"/>
    <path d="M266 210l-10-10M266 210l-10 10" stroke-opacity="0.75"/>
    <path d="M457 210l-10-10M457 210l-10 10" stroke-opacity="0.75"/>

    <rect x="118" y="148" width="78" height="104" rx="12" stroke-opacity="0.88"/>
    <path d="M134 174h46M134 196h46M134 218h28" stroke-opacity="0.88"/>
    <path d="M204 264V206" stroke-opacity="0.88"/>
    <path d="M186 224l18-18 18 18" stroke-opacity="0.88"/>

    <rect x="307" y="148" width="78" height="104" rx="12" stroke-opacity="0.88"/>
    <path d="M323 174h46M323 196h46M323 218h28" stroke-opacity="0.88"/>
    <circle cx="392" cy="252" r="22" stroke-opacity="0.88"/>
    <path d="M407 267l22 22" stroke-opacity="0.88"/>
    <path d="M383 252l7 7 14-16" stroke-opacity="0.88"/>

    <path d="M496 150h78v104h-78z" stroke-opacity="0.88"/>
    <path d="M512 174h46M512 196h46M512 218h28" stroke-opacity="0.88"/>
    <path d="M574 158l20 20" stroke-opacity="0.88"/>
    <path d="M574 158h20v20" stroke-opacity="0.88"/>
    <path d="M506 266h60" stroke-opacity="0.88"/>
  </g>

  <g fill="#0B1220" fill-opacity="0.78" font-family="system-ui, -apple-system, Segoe UI, Roboto, Helvetica, Arial" font-size="18">
    <text x="126" y="330">投稿</text>
    <text x="312" y="330">同行评审</text>
    <text x="496" y="330">录用 / 出版</text>
  </g>

  <g fill="#005A9C" fill-opacity="0.22">
    <circle cx="92" cy="94" r="6"/>
    <circle cx="624" cy="94" r="6"/>
    <circle cx="92" cy="326" r="6"/>
    <circle cx="624" cy="326" r="6"/>
  </g>
</svg>
